This is the Ted's notebook part of the post race show from Sky. I have posted this as most people requesting the post race show want to watch this part.

Runtime : About 8 Minutes


Technical Information :


Video

Format                         : AVC
Format/Info                    : Advanced Video Codec
Format profile                 : Main@L3.0
Format settings, CABAC         : Yes
Format settings, ReFrames      : 3 frames
Format settings, GOP           : M=1, N=50
Codec ID                       : 7
Duration                       : 7mn 9s
Bit rate                       : 581 Kbps
Width                          : 640 pixels
Height                         : 360 pixels
Display aspect ratio           : 16:9
Frame rate mode                : Constant
Frame rate                     : 25.000 fps
Color space                    : YUV
Chroma subsampling             : 4:2:0
Bit depth                      : 8 bits
Scan type                      : Progressive
Bits/(Pixel*Frame)             : 0.101
Stream size                    : 29.8 MiB (81%)

Audio

Format                         : AAC
Format/Info                    : Advanced Audio Codec
Format profile                 : LC
Codec ID                       : 10
Duration                       : 7mn 9s
Bit rate                       : 129 Kbps
Channel(s)                     : 2 channels
Channel positions              : Front: L R
Sampling rate                  : 44.1 KHz
Compression mode               : Lossy
Stream size                    : 6.59 MiB (18%)


Screens :
 
http://i.imgur.com/tspa0wb.jpg
 
http://i.imgur.com/lmA63g1.jpg
 
http://i.imgur.com/a6JAoM9.jpg
